<svg data-v-52e0beca="" xmlns="http://www.w3.org/2000/svg" viewBox="0 0 24 18" class="contact__icon sf-mr-s" data-v-682e24ba=""><path d="M22.664 14.987c0 .866-.715 1.57-1.594 1.57H2.935a1.584 1.584 0 01-1.594-1.57V2.777c0-.867.715-1.571 1.594-1.571h18.13c.88 0 1.594.704 1.594 1.57v12.21zM21.07-.121H2.935C1.315-.121 0 1.176 0 2.772v12.215c0 1.595 1.316 2.892 2.935 2.892h18.13c1.619 0 2.935-1.297 2.935-2.892V2.777c.005-1.596-1.311-2.898-2.93-2.898z"></path><path d="M15.136 8.728l5.87-5.188a.657.657 0 00.05-.935.68.68 0 00-.95-.049l-8.094 7.16-1.579-1.39c-.005-.005-.01-.01-.01-.014a.99.99 0 00-.109-.093L3.888 2.551a.676.676 0 00-.948.054.653.653 0 00.054.935l5.94 5.232-5.915 5.456a.657.657 0 00-.03.935.677.677 0 00.948.034l6.005-5.535 1.628 1.434a.676.676 0 00.894-.005l1.674-1.478 5.969 5.59c.129.122.298.18.462.18a.674.674 0 00.486-.205.657.657 0 00-.025-.935z"></path></svg>