<svg data-v-52e0beca="" xmlns="http://www.w3.org/2000/svg" viewBox="0 0 24 24" class="contact__icon sf-mr-s" data-v-682e24ba=""><path d="M20.794 20.08c-.005 0-.005.005 0 0-.198.213-.401.405-.62.618-.329.314-.664.643-.978 1.013-.513.547-1.116.806-1.908.806-.076 0-.157 0-.233-.005-1.506-.097-2.907-.684-3.957-1.186-2.87-1.388-5.392-3.358-7.487-5.855-1.73-2.082-2.886-4.007-3.652-6.074-.472-1.261-.645-2.244-.568-3.17a2.32 2.32 0 01.7-1.505l1.73-1.727c.248-.233.512-.36.77-.36.32 0 .579.192.741.355l.015.015c.31.289.604.587.913.906.158.163.32.325.482.492l1.385 1.383c.538.537.538 1.033 0 1.57-.147.147-.289.294-.436.436-.426.435-.832.84-1.273 1.236-.01.01-.02.015-.026.025-.436.435-.355.861-.264 1.15l.016.045c.36.872.867 1.692 1.638 2.67l.005.005c1.4 1.722 2.876 3.064 4.505 4.093.208.131.42.238.624.339.182.091.355.177.502.268.02.01.04.026.06.036a1.1 1.1 0 00.503.127c.421 0 .685-.264.771-.35l1.735-1.732c.172-.173.446-.38.766-.38.314 0 .573.197.73.37l.01.01 2.796 2.79c.522.517.522 1.05.005 1.586zm-1.816-5.334c-.492-.511-1.086-.785-1.715-.785-.624 0-1.222.269-1.735.78l-1.603 1.596c-.132-.071-.264-.137-.39-.203a6.571 6.571 0 01-.503-.268c-1.501-.953-2.866-2.194-4.174-3.8-.635-.8-1.06-1.473-1.37-2.157.416-.38.801-.775 1.177-1.155.142-.142.284-.289.426-.43 1.065-1.064 1.065-2.442 0-3.506L7.706 3.435c-.157-.157-.32-.319-.472-.48a23.938 23.938 0 00-.953-.943c-.492-.486-1.08-.745-1.7-.745-.619 0-1.217.259-1.724.745l-.01.01L1.122 3.76A3.704 3.704 0 00.021 6.115c-.122 1.479.314 2.857.65 3.758.821 2.214 2.049 4.265 3.88 6.464 2.222 2.649 4.895 4.741 7.949 6.215 1.167.552 2.724 1.206 4.464 1.317.106.005.218.01.32.01 1.171 0 2.155-.42 2.926-1.256.005-.01.016-.015.02-.025.264-.32.569-.608.888-.917a19.3 19.3 0 00.66-.654c.502-.521.766-1.13.766-1.752 0-.628-.269-1.231-.781-1.738zM12.972 5.588a6.436 6.436 0 013.5 1.814 6.454 6.454 0 011.816 3.495.68.68 0 00.674.567c.041 0 .077-.005.117-.01a.685.685 0 00.563-.79 7.809 7.809 0 00-2.196-4.23 7.828 7.828 0 00-4.236-2.193.688.688 0 00-.791.557c-.066.37.177.73.553.79zM23.99 10.466a12.847 12.847 0 00-3.617-6.965A12.878 12.878 0 0013.398-.11a.683.683 0 10-.224 1.347c2.364.4 4.52 1.52 6.235 3.227a11.47 11.47 0 013.231 6.225.68.68 0 00.675.567c.04 0 .076-.005.117-.01a.671.671 0 00.558-.78z"></path><g><path d="M22.64 10.689a.68.68 0 00.791.557.67.67 0 00.558-.78c-.45-2.644-1.7-5.05-3.616-6.966a12.882 12.882 0 00-6.975-3.61.681.681 0 00-.787.557.687.687 0 00.564.79c2.363.4 4.52 1.52 6.234 3.227a11.465 11.465 0 013.23 6.225zm-4.352.208a.68.68 0 00.675.567c.04 0 .075-.006.116-.01a.684.684 0 00.563-.79 7.813 7.813 0 00-2.196-4.23A7.829 7.829 0 0013.21 4.24a.688.688 0 00-.791.558c-.066.37.177.73.552.79a6.44 6.44 0 013.5 1.813 6.453 6.453 0 011.817 3.496zM3.82 2.995c.248-.233.513-.36.771-.36.32 0 .579.192.741.354l.015.016c.31.289.604.587.913.906.157.162.32.325.482.491l1.385 1.384c.538.536.538 1.033 0 1.57-.147.147-.29.294-.436.436-.427.435-.833.84-1.274 1.236-.01.01-.02.015-.025.025-.436.435-.355.861-.263 1.15l.015.045c.36.871.867 1.692 1.638 2.67l.005.005c1.4 1.721 2.877 3.064 4.505 4.092.208.132.42.238.623.34.183.091.356.177.503.268.02.01.04.026.06.035a1.1 1.1 0 00.503.127c.421 0 .685-.263.771-.349l1.735-1.732c.172-.173.446-.38.766-.38.315 0 .573.197.73.37l.01.01 2.796 2.79c.522.517.522 1.05.005 1.586-.004 0-.005.002-.004.002l.004-.002c-.198.213-.401.405-.62.618-.329.314-.663.643-.978 1.013-.513.547-1.116.806-1.908.806-.076 0-.157 0-.233-.006-1.506-.096-2.907-.684-3.957-1.185-2.87-1.388-5.392-3.358-7.487-5.855-1.73-2.082-2.886-4.007-3.652-6.074-.472-1.262-.645-2.244-.569-3.171a2.325 2.325 0 01.7-1.504l1.73-1.727zM20.794 20.08zm-3.83 3.788a5.8 5.8 0 00.32.011c1.17 0 2.156-.42 2.926-1.256.005-.01.015-.015.02-.025.264-.32.569-.609.888-.917a19.3 19.3 0 00.66-.654c.502-.522.766-1.13.766-1.752 0-.628-.27-1.231-.782-1.738l-2.784-2.79c-.492-.512-1.086-.786-1.715-.786-.624 0-1.223.269-1.735.78l-1.603 1.595c-.132-.07-.263-.136-.39-.202a6.362 6.362 0 01-.503-.268c-1.5-.952-2.866-2.194-4.175-3.8-.633-.8-1.06-1.473-1.37-2.157.417-.38.802-.775 1.178-1.155.142-.142.284-.289.425-.43 1.066-1.064 1.066-2.442 0-3.506L7.706 3.435a19.84 19.84 0 01-.471-.48 24.08 24.08 0 00-.954-.943c-.493-.487-1.081-.745-1.7-.745s-1.217.258-1.725.745l-.01.01L1.122 3.76a3.698 3.698 0 00-1.1 2.355C-.101 7.594.335 8.972.67 9.874c.822 2.213 2.05 4.265 3.88 6.462 2.223 2.65 4.896 4.742 7.95 6.216 1.166.552 2.724 1.206 4.464 1.316z"></path></g></svg>